# xmcd CD database file
#
# Track frame offsets:
#	150
#	12165
#	24465
#	36701
#	51069
#	63614
#	76058
#	88146
#	102212
#	114683
#	127418
#	139748
#	151937
#	163454
#	174929
#	187768
#	201063
#	212873
#	227341
#	239954
#	252883
#	265468
#	278140
#	289467
#	301256
#
# Disc length: 4190 seconds
#
# Revision: 0
# Processed by: cddbd v1.5.1PL0 Copyright (c) Steve Scherf et al.
# Submitted via: CDex 1.51
#
DISCID=73105c19
DTITLE=Luiz Gonzaga - Relíquias
DYEAR=2004
DGENRE=Forró
TTITLE0=Aboio apaixonado
TTITLE1=Amor da minha vida
TTITLE2=Assum preto
TTITLE3=Balance eu
TTITLE4=Beata Mocinha
TTITLE5=Boiadeiro
TTITLE6=Cabra da peste
TTITLE7=Capital do Agreste
TTITLE8=Casametno atrapaiado
TTITLE9=Chorei, chorão
TTITLE10=Cigarro de paia
TTITLE11=Feira de gado
TTITLE12=Gibão de couro
TTITLE13=Juca
TTITLE14=Linda brejeira
TTITLE15=Madame baião
TTITLE16=Mariá
TTITLE17=Meu padim
TTITLE18=Moreninha, moreninha
TTITLE19=Paulo Afonso
TTITLE20=Propiá
TTITLE21=Qui modelos são os seus
TTITLE22=Sertão sofredor
TTITLE23=Testamento de caboclo
TTITLE24=Vem morena
EXTD=YEAR: 2004
EXTT0=
EXTT1=
EXTT2=
EXTT3=
EXTT4=
EXTT5=
EXTT6=
EXTT7=
EXTT8=
EXTT9=
EXTT10=
EXTT11=
EXTT12=
EXTT13=
EXTT14=
EXTT15=
EXTT16=
EXTT17=
EXTT18=
EXTT19=
EXTT20=
EXTT21=
EXTT22=
EXTT23=
EXTT24=
PLAYORDER=
